<svg id="svg" version="1.1" xmlns="http://www.w3.org/2000/svg" xmlns:xlink="http://www.w3.org/1999/xlink" width="400" height="400" viewBox="0, 0, 400,400"><g id="svgg"><path id="path0" d="M162.254 109.409 C 155.427 111.136,149.854 116.590,147.957 123.400 C 147.149 126.302,147.128 207.786,147.935 210.200 C 151.250 220.119,159.792 225.728,169.500 224.359 C 172.678 223.911,175.098 222.833,182.400 218.615 C 185.370 216.899,188.790 214.953,190.000 214.290 C 191.210 213.627,192.380 212.950,192.600 212.785 C 192.820 212.620,193.630 212.128,194.400 211.692 C 195.170 211.256,198.050 209.599,200.800 208.010 C 203.550 206.421,206.520 204.711,207.400 204.210 C 208.280 203.710,211.250 201.995,214.000 200.400 C 216.750 198.805,219.810 197.050,220.800 196.501 C 221.790 195.951,223.230 195.119,224.000 194.651 C 224.770 194.184,225.880 193.531,226.466 193.201 C 246.717 181.793,249.083 179.930,251.611 173.400 C 252.723 170.529,252.976 163.592,252.057 161.200 C 250.192 156.347,248.021 153.363,244.578 150.923 C 243.471 150.138,233.393 144.225,224.600 139.200 C 221.699 137.542,195.213 122.262,193.400 121.199 C 172.023 108.678,169.268 107.635,162.254 109.409 " stroke="none" fill="#f26b6b" fill-rule="evenodd"></path><path id="path1" d="M131.530 293.088 C 129.116 293.345,129.182 292.814,129.296 311.046 L 129.400 327.800 200.000 327.800 L 270.600 327.800 270.696 311.000 C 270.755 300.844,270.642 293.963,270.411 293.600 C 270.052 293.036,136.630 292.544,131.530 293.088 " stroke="none" fill="#c9d8e0" fill-rule="evenodd"></path><path id="path2" d="M21.600 40.000 C 21.600 40.220,20.880 40.400,20.000 40.400 C 19.120 40.400,18.400 40.580,18.400 40.800 C 18.400 41.020,18.040 41.200,17.600 41.200 C 17.160 41.200,16.800 41.360,16.800 41.557 C 16.800 41.753,16.395 42.017,15.900 42.143 C 14.696 42.451,11.934 44.769,12.220 45.232 C 12.345 45.434,12.137 45.600,11.757 45.600 C 11.377 45.600,11.185 45.718,11.330 45.863 C 11.475 46.008,11.393 46.368,11.148 46.663 C 10.852 47.019,10.834 47.369,11.094 47.700 C 11.310 47.975,11.700 50.180,11.960 52.600 C 13.165 63.813,16.097 81.710,18.382 91.800 C 18.581 92.680,18.948 94.300,19.197 95.400 C 19.704 97.635,20.126 99.384,20.767 101.900 C 21.005 102.835,21.365 104.275,21.567 105.100 C 23.588 113.362,29.795 133.756,32.188 140.000 C 32.567 140.990,33.238 142.790,33.678 144.000 C 34.118 145.210,34.624 146.560,34.803 147.000 C 34.981 147.440,35.969 149.960,36.998 152.600 C 38.898 157.477,39.250 158.328,40.753 161.696 C 41.219 162.738,41.600 163.703,41.600 163.841 C 41.600 165.585,55.615 193.270,62.334 204.800 C 64.193 207.990,65.915 210.960,66.160 211.400 C 66.405 211.840,67.479 213.550,68.548 215.200 C 69.616 216.850,70.965 218.972,71.545 219.916 C 73.130 222.495,81.405 234.581,83.927 238.000 C 88.675 244.437,89.528 245.557,93.363 250.398 C 103.300 262.939,112.503 273.273,123.508 284.246 C 130.423 291.141,131.049 291.877,130.289 292.221 C 129.828 292.430,129.381 292.870,129.295 293.200 C 129.156 293.733,129.185 293.733,129.555 293.200 C 130.313 292.106,269.808 292.104,270.492 293.198 C 270.993 294.002,271.265 294.006,324.718 293.997 C 359.913 293.992,378.356 293.853,378.196 293.594 C 378.050 293.358,378.669 293.200,379.743 293.200 C 380.728 293.200,381.593 293.065,381.667 292.900 C 381.740 292.735,382.830 292.086,384.089 291.458 C 385.628 290.690,386.868 289.674,387.871 288.358 C 388.693 287.281,389.463 286.400,389.585 286.400 C 389.887 286.400,390.746 284.398,390.911 283.310 C 390.985 282.821,391.171 282.296,391.323 282.144 C 391.780 281.686,391.658 51.705,391.200 50.795 C 390.980 50.358,390.620 49.642,390.400 49.205 C 390.180 48.768,390.000 48.214,390.000 47.973 C 390.000 47.276,387.148 43.985,386.755 44.228 C 386.560 44.348,386.400 44.231,386.400 43.968 C 386.400 43.364,385.401 42.578,383.600 41.765 C 382.830 41.417,381.887 40.968,381.505 40.766 C 381.123 40.565,380.268 40.400,379.605 40.400 C 378.942 40.400,378.400 40.220,378.400 40.000 C 378.400 39.734,318.667 39.600,200.000 39.600 C 81.333 39.600,21.600 39.734,21.600 40.000 M171.400 109.098 C 173.053 109.472,176.856 111.224,180.000 113.061 C 180.990 113.640,182.340 114.423,183.000 114.802 C 183.660 115.181,186.248 116.686,188.752 118.146 C 191.255 119.606,193.388 120.800,193.490 120.800 C 193.593 120.800,194.154 121.133,194.738 121.539 C 195.791 122.272,199.774 124.526,201.497 125.364 C 201.990 125.604,202.395 125.935,202.397 126.100 C 202.399 126.265,202.572 126.400,202.782 126.400 C 202.993 126.400,204.118 126.965,205.282 127.656 C 206.447 128.347,207.985 129.247,208.700 129.656 C 210.993 130.968,212.521 131.851,216.200 133.990 C 218.180 135.141,220.520 136.489,221.400 136.985 C 222.280 137.481,223.675 138.272,224.500 138.743 C 225.325 139.215,226.675 139.979,227.500 140.443 C 228.325 140.906,229.180 141.427,229.400 141.600 C 229.620 141.773,230.475 142.294,231.300 142.757 C 232.888 143.650,234.640 144.648,237.100 146.063 C 237.925 146.537,238.960 147.129,239.400 147.378 C 243.862 149.900,245.247 150.860,247.190 152.777 C 249.620 155.174,251.103 157.547,251.956 160.400 C 252.251 161.390,252.652 162.722,252.847 163.360 C 255.084 170.701,250.013 180.102,241.089 185.157 C 238.139 186.828,237.054 187.456,234.800 188.800 C 232.731 190.034,232.104 190.398,228.600 192.400 C 227.830 192.840,226.615 193.540,225.900 193.955 C 225.185 194.370,222.170 196.100,219.200 197.800 C 213.126 201.276,212.271 201.772,209.282 203.544 C 208.118 204.235,207.101 204.800,207.023 204.800 C 206.945 204.800,205.697 205.520,204.248 206.400 C 202.800 207.280,201.431 208.000,201.207 208.000 C 200.983 208.000,200.800 208.159,200.800 208.353 C 200.800 208.548,200.485 208.810,200.100 208.936 C 199.715 209.062,198.590 209.644,197.600 210.230 C 193.773 212.496,188.103 215.761,186.000 216.912 C 184.790 217.574,183.620 218.250,183.400 218.415 C 183.180 218.580,182.325 219.094,181.500 219.557 C 180.675 220.021,179.370 220.760,178.600 221.200 C 177.830 221.640,176.615 222.323,175.900 222.719 C 164.366 229.094,149.968 221.744,147.225 208.080 C 146.534 204.636,146.647 128.607,147.349 124.926 C 149.502 113.639,160.237 106.574,171.400 109.098 M9.988 285.978 C 10.633 287.182,11.271 287.392,10.739 286.225 C 10.482 285.661,10.114 285.200,9.922 285.200 C 9.729 285.200,9.759 285.550,9.988 285.978 M270.573 327.987 C 270.299 328.261,254.565 328.430,223.121 328.498 L 176.078 328.600 182.339 332.793 C 189.644 337.686,199.174 343.693,202.600 345.565 C 203.920 346.286,205.180 347.013,205.400 347.181 C 205.620 347.348,206.790 348.025,208.000 348.684 C 209.210 349.344,211.010 350.335,212.000 350.886 C 216.354 353.312,218.502 354.454,223.133 356.804 C 225.847 358.181,228.161 359.554,228.276 359.854 C 228.539 360.538,292.400 360.684,292.400 360.000 C 292.400 359.780,292.760 359.600,293.200 359.600 C 293.640 359.600,294.000 359.420,294.000 359.200 C 294.000 358.980,294.276 358.800,294.613 358.800 C 296.226 358.800,298.800 354.991,298.800 352.605 C 298.800 351.858,298.935 351.164,299.100 351.062 C 299.578 350.768,298.948 333.988,298.441 333.481 C 298.198 333.238,298.000 332.716,298.000 332.320 C 298.000 331.924,297.820 331.600,297.600 331.600 C 297.380 331.600,297.200 331.396,297.200 331.147 C 297.200 330.553,295.628 329.200,294.939 329.200 C 294.642 329.200,294.399 329.065,294.397 328.900 C 294.384 327.694,271.734 326.826,270.573 327.987 M100.719 344.239 C 100.653 347.890,100.735 350.961,100.900 351.063 C 101.065 351.164,101.200 348.177,101.200 344.424 C 101.200 335.685,100.874 335.560,100.719 344.239 " stroke="none" fill="#4c545b" fill-rule="evenodd"></path><path id="path3" d="M9.953 47.500 C 9.927 47.665,9.921 47.918,9.940 48.062 C 9.959 48.206,9.721 48.534,9.411 48.791 C 9.101 49.048,8.946 49.515,9.067 49.829 C 9.187 50.143,9.087 50.400,8.844 50.400 C 8.415 50.400,8.396 281.318,8.825 283.478 C 8.921 283.961,9.417 284.744,9.927 285.219 C 10.499 285.751,10.759 286.330,10.606 286.729 C 10.469 287.084,10.479 287.255,10.626 287.107 C 10.992 286.741,11.880 287.681,12.062 288.625 C 12.143 289.048,12.703 289.630,13.305 289.919 C 13.907 290.207,14.400 290.597,14.400 290.784 C 14.400 290.972,14.805 291.036,15.300 290.928 C 16.023 290.769,16.082 290.815,15.600 291.159 C 15.102 291.515,15.153 291.589,15.900 291.594 C 16.395 291.597,16.800 291.780,16.800 292.000 C 16.800 292.220,17.340 292.400,18.000 292.400 C 18.660 292.400,19.200 292.580,19.200 292.800 C 19.200 293.020,19.920 293.200,20.800 293.200 C 21.680 293.200,22.400 293.380,22.400 293.600 C 22.400 293.865,40.451 294.000,75.753 294.000 L 129.107 294.000 129.324 293.170 C 129.443 292.714,129.912 292.243,130.367 292.125 C 131.062 291.943,129.980 290.699,123.541 284.279 C 112.503 273.273,103.310 262.951,93.363 250.398 C 89.528 245.557,88.675 244.437,83.927 238.000 C 81.405 234.581,73.130 222.495,71.545 219.916 C 70.965 218.972,69.616 216.850,68.548 215.200 C 67.479 213.550,66.405 211.840,66.160 211.400 C 65.915 210.960,64.193 207.990,62.334 204.800 C 55.615 193.270,41.600 165.585,41.600 163.841 C 41.600 163.703,41.219 162.738,40.753 161.696 C 39.250 158.328,38.898 157.477,36.998 152.600 C 35.969 149.960,34.981 147.440,34.803 147.000 C 34.624 146.560,34.118 145.210,33.678 144.000 C 33.238 142.790,32.567 140.990,32.188 140.000 C 29.795 133.756,23.588 113.362,21.567 105.100 C 21.365 104.275,21.020 102.880,20.800 102.000 C 20.580 101.120,20.231 99.725,20.025 98.900 C 19.819 98.075,19.472 96.590,19.253 95.600 C 19.035 94.610,18.668 92.990,18.438 92.000 C 16.225 82.480,13.181 63.966,11.960 52.600 C 11.700 50.180,11.310 47.975,11.094 47.700 C 10.659 47.146,10.026 47.035,9.953 47.500 M106.226 328.231 C 105.934 328.523,105.584 328.650,105.448 328.514 C 105.311 328.378,105.200 328.477,105.200 328.733 C 105.200 328.990,104.795 329.203,104.300 329.206 C 103.572 329.211,103.515 329.286,104.000 329.600 C 104.611 329.995,104.086 330.225,103.032 330.025 C 102.830 329.986,102.879 330.213,103.141 330.529 C 103.524 330.991,103.460 331.143,102.808 331.314 C 102.322 331.441,102.000 331.859,102.000 332.363 C 102.000 332.823,101.820 333.200,101.600 333.200 C 101.380 333.200,101.200 334.021,101.200 335.024 C 101.200 336.137,101.044 336.751,100.800 336.600 C 100.580 336.464,100.400 336.543,100.400 336.776 C 100.400 337.009,100.580 337.200,100.800 337.200 C 101.054 337.200,101.200 340.251,101.200 345.554 C 101.200 352.068,101.328 354.155,101.780 355.026 C 102.098 355.640,102.265 356.295,102.150 356.481 C 102.035 356.667,102.111 356.770,102.319 356.710 C 102.528 356.649,103.339 357.275,104.122 358.100 C 105.047 359.074,105.906 359.600,106.573 359.600 C 107.138 359.600,107.603 359.825,107.606 360.100 C 107.611 360.468,107.703 360.457,107.956 360.057 C 108.196 359.679,108.383 359.649,108.574 359.957 C 108.996 360.641,228.525 360.584,228.307 359.900 C 228.218 359.625,227.024 358.824,225.652 358.120 C 221.233 355.853,213.447 351.736,211.800 350.796 C 210.920 350.293,209.210 349.343,208.000 348.683 C 206.790 348.024,205.620 347.350,205.400 347.184 C 205.180 347.019,204.100 346.391,203.000 345.790 C 199.317 343.775,191.870 339.101,183.781 333.727 L 175.762 328.400 152.481 328.400 C 136.445 328.400,129.200 328.269,129.200 327.979 C 129.200 327.302,106.910 327.547,106.226 328.231 " stroke="none" fill="#3c444c" fill-rule="evenodd"></path><path id="path4" d="M163.515 108.728 C 163.138 108.878,164.525 109.000,166.597 109.000 C 168.670 109.000,170.058 108.878,169.683 108.728 C 169.307 108.579,167.920 108.456,166.600 108.456 C 165.280 108.456,163.892 108.579,163.515 108.728 M160.400 109.618 C 159.962 109.915,160.124 109.952,161.000 109.756 C 162.471 109.427,162.790 109.198,161.767 109.206 C 161.345 109.209,160.730 109.395,160.400 109.618 M171.233 109.344 C 171.325 109.423,171.940 109.608,172.600 109.756 C 173.476 109.952,173.638 109.915,173.200 109.618 C 172.660 109.253,170.832 108.998,171.233 109.344 M177.600 112.020 C 178.987 112.961,179.778 113.235,178.800 112.436 C 178.250 111.986,177.620 111.617,177.400 111.615 C 177.180 111.613,177.270 111.796,177.600 112.020 M180.000 113.390 C 180.000 113.494,180.585 113.865,181.300 114.214 L 182.600 114.848 181.600 114.033 C 180.637 113.248,180.000 112.992,180.000 113.390 M151.741 115.500 C 151.086 116.325,150.412 117.270,150.245 117.600 C 150.078 117.930,150.220 117.856,150.561 117.436 C 150.902 117.016,151.651 116.146,152.224 115.502 C 152.797 114.859,153.191 114.258,153.100 114.167 C 153.008 114.075,152.397 114.675,151.741 115.500 M182.800 114.990 C 182.800 115.094,183.385 115.465,184.100 115.814 L 185.400 116.448 184.400 115.633 C 183.437 114.848,182.800 114.592,182.800 114.990 M185.600 116.579 C 185.600 116.689,186.140 117.059,186.800 117.400 C 187.460 117.741,188.000 117.931,188.000 117.821 C 188.000 117.711,187.460 117.341,186.800 117.000 C 186.140 116.659,185.600 116.469,185.600 116.579 M188.400 118.179 C 188.400 118.289,188.940 118.659,189.600 119.000 C 190.260 119.341,190.800 119.531,190.800 119.421 C 190.800 119.311,190.260 118.941,189.600 118.600 C 188.940 118.259,188.400 118.069,188.400 118.179 M192.000 120.364 C 192.550 120.814,193.117 121.186,193.259 121.191 C 193.402 121.196,194.662 121.885,196.059 122.723 C 201.070 125.728,202.400 126.428,202.400 126.064 C 202.400 125.860,202.085 125.590,201.700 125.464 C 201.315 125.338,200.190 124.761,199.200 124.183 C 198.210 123.604,196.770 122.761,196.000 122.310 C 192.529 120.278,190.964 119.516,192.000 120.364 M147.873 122.153 C 147.723 122.545,147.611 123.166,147.625 123.533 C 147.642 123.975,147.781 123.874,148.037 123.234 C 148.249 122.703,148.361 122.082,148.285 121.854 C 148.209 121.627,148.024 121.761,147.873 122.153 M147.057 126.300 C 146.732 128.266,146.818 206.245,147.147 207.777 C 147.286 208.425,147.400 190.020,147.400 166.877 C 147.400 143.735,147.379 124.800,147.352 124.800 C 147.326 124.800,147.193 125.475,147.057 126.300 M203.411 126.938 C 205.010 128.028,208.000 129.669,208.000 129.457 C 208.000 129.210,203.303 126.400,202.890 126.400 C 202.742 126.400,202.977 126.642,203.411 126.938 M208.400 129.790 C 208.400 129.894,208.985 130.265,209.700 130.614 L 211.000 131.248 210.000 130.433 C 209.037 129.648,208.400 129.392,208.400 129.790 M211.200 131.390 C 211.200 131.494,211.785 131.865,212.500 132.214 L 213.800 132.848 212.800 132.033 C 211.837 131.248,211.200 130.992,211.200 131.390 M214.000 132.979 C 214.000 133.089,214.540 133.459,215.200 133.800 C 215.860 134.141,216.400 134.331,216.400 134.221 C 216.400 134.111,215.860 133.741,215.200 133.400 C 214.540 133.059,214.000 132.869,214.000 132.979 M216.800 134.579 C 216.800 134.689,217.340 135.059,218.000 135.400 C 218.660 135.741,219.200 135.931,219.200 135.821 C 219.200 135.711,218.660 135.341,218.000 135.000 C 217.340 134.659,216.800 134.469,216.800 134.579 M219.800 136.313 C 220.020 136.539,220.875 137.102,221.700 137.562 C 222.525 138.023,223.830 138.760,224.600 139.200 C 225.370 139.640,226.641 140.363,227.426 140.808 C 228.210 141.252,229.335 141.903,229.926 142.255 L 231.000 142.895 230.000 142.069 C 229.450 141.615,228.370 140.901,227.600 140.483 C 226.830 140.065,225.480 139.310,224.600 138.805 C 221.055 136.771,219.420 135.922,219.800 136.313 M231.600 143.220 C 232.987 144.161,233.778 144.435,232.800 143.636 C 232.250 143.186,231.620 142.817,231.400 142.815 C 231.180 142.813,231.270 142.996,231.600 143.220 M234.400 144.820 C 235.787 145.761,236.578 146.035,235.600 145.236 C 235.050 144.786,234.420 144.417,234.200 144.415 C 233.980 144.413,234.070 144.596,234.400 144.820 M236.800 146.190 C 236.800 146.294,237.385 146.665,238.100 147.014 L 239.400 147.648 238.400 146.833 C 237.437 146.048,236.800 145.792,236.800 146.190 M239.600 147.790 C 239.600 147.894,240.185 148.265,240.900 148.614 L 242.200 149.248 241.200 148.433 C 240.237 147.648,239.600 147.392,239.600 147.790 M242.400 149.337 C 242.400 149.423,243.165 149.998,244.100 150.615 C 245.061 151.249,245.552 151.434,245.229 151.042 C 244.687 150.382,242.400 149.004,242.400 149.337 M246.016 151.742 C 246.007 151.931,246.429 152.422,246.953 152.835 C 247.478 153.247,248.487 154.488,249.195 155.592 C 250.606 157.791,251.160 158.256,250.233 156.464 C 249.562 155.167,246.040 151.223,246.016 151.742 M252.600 166.800 C 252.600 168.984,252.722 170.462,252.872 170.085 C 253.021 169.708,253.144 168.230,253.144 166.800 C 253.144 165.370,253.021 163.892,252.872 163.515 C 252.722 163.138,252.600 164.616,252.600 166.800 M249.651 177.300 C 249.203 178.015,248.360 179.107,247.778 179.726 C 247.196 180.346,246.806 180.939,246.911 181.045 C 247.017 181.150,247.638 180.554,248.291 179.718 C 249.817 177.766,250.951 176.000,250.679 176.000 C 250.561 176.000,250.099 176.585,249.651 177.300 M241.900 184.229 C 241.295 184.557,240.800 184.910,240.800 185.013 C 240.800 185.399,241.432 185.157,242.400 184.400 C 243.589 183.470,243.411 183.409,241.900 184.229 M239.100 185.829 C 238.495 186.157,238.000 186.510,238.000 186.613 C 238.000 186.999,238.632 186.757,239.600 186.000 C 240.789 185.070,240.611 185.009,239.100 185.829 M232.200 189.870 C 229.340 191.537,226.460 193.212,225.800 193.594 C 225.140 193.976,223.647 194.853,222.482 195.544 C 221.318 196.235,220.238 196.804,220.082 196.809 C 219.927 196.814,219.350 197.185,218.800 197.633 L 217.800 198.448 219.099 197.815 C 219.813 197.466,221.343 196.620,222.499 195.935 C 224.477 194.761,225.136 194.380,228.600 192.400 C 231.789 190.578,232.717 190.040,235.100 188.635 C 236.475 187.825,237.600 187.080,237.600 186.981 C 237.600 186.715,237.804 186.605,232.200 189.870 M216.300 199.029 C 214.805 199.840,214.896 200.178,216.400 199.400 C 217.060 199.059,217.600 198.694,217.600 198.590 C 217.600 198.332,217.557 198.347,216.300 199.029 M213.500 200.629 C 212.895 200.957,212.400 201.310,212.400 201.413 C 212.400 201.799,213.032 201.557,214.000 200.800 C 215.189 199.870,215.011 199.809,213.500 200.629 M210.100 202.626 C 208.212 203.758,207.777 204.349,209.500 203.441 C 210.709 202.803,212.316 201.631,212.000 201.617 C 211.890 201.612,211.035 202.066,210.100 202.626 M203.712 206.299 C 202.344 207.101,201.287 207.820,201.363 207.896 C 201.527 208.061,206.400 205.241,206.400 204.981 C 206.400 204.719,206.427 204.706,203.712 206.299 M198.200 209.452 C 195.215 211.220,194.282 212.100,197.000 210.582 C 198.100 209.968,199.404 209.271,199.897 209.033 C 200.390 208.795,200.795 208.465,200.797 208.300 C 200.801 207.895,200.907 207.848,198.200 209.452 M193.200 212.433 L 192.200 213.248 193.500 212.614 C 194.215 212.265,194.800 211.894,194.800 211.790 C 194.800 211.392,194.163 211.648,193.200 212.433 M190.700 213.829 C 189.205 214.640,189.296 214.978,190.800 214.200 C 191.460 213.859,192.000 213.494,192.000 213.390 C 192.000 213.132,191.957 213.147,190.700 213.829 M187.600 215.600 C 187.050 216.030,186.780 216.382,187.000 216.382 C 187.220 216.382,187.850 216.030,188.400 215.600 C 188.950 215.170,189.220 214.818,189.000 214.818 C 188.780 214.818,188.150 215.170,187.600 215.600 M150.706 216.600 C 152.182 218.736,156.869 222.800,157.856 222.800 C 158.040 222.800,157.272 222.182,156.151 221.427 C 155.030 220.672,153.160 219.007,151.995 217.727 C 150.830 216.447,150.250 215.940,150.706 216.600 M185.100 217.029 C 183.605 217.840,183.696 218.178,185.200 217.400 C 185.860 217.059,186.400 216.694,186.400 216.590 C 186.400 216.332,186.357 216.347,185.100 217.029 M182.300 218.629 C 181.695 218.957,181.200 219.310,181.200 219.413 C 181.200 219.799,181.832 219.557,182.800 218.800 C 183.989 217.870,183.811 217.809,182.300 218.629 M179.500 220.229 C 178.895 220.557,178.400 220.910,178.400 221.013 C 178.400 221.399,179.032 221.157,180.000 220.400 C 181.189 219.470,181.011 219.409,179.500 220.229 M175.600 222.400 C 174.390 223.039,173.620 223.571,173.888 223.581 C 174.399 223.601,177.125 222.187,177.780 221.562 C 178.377 220.993,177.961 221.153,175.600 222.400 M160.800 223.982 C 161.130 224.205,161.745 224.391,162.167 224.394 C 163.190 224.402,162.871 224.173,161.400 223.844 C 160.524 223.648,160.362 223.685,160.800 223.982 M171.600 224.000 C 170.776 224.264,170.741 224.326,171.400 224.354 C 171.840 224.373,172.470 224.213,172.800 224.000 C 173.501 223.547,173.014 223.547,171.600 224.000 M165.100 224.893 C 166.086 225.098,167.514 225.098,168.500 224.893 C 169.993 224.582,169.786 224.539,166.800 224.539 C 163.814 224.539,163.607 224.582,165.100 224.893 M130.534 292.678 C 130.057 292.771,129.558 293.132,129.425 293.480 C 129.214 294.030,129.270 294.040,129.852 293.557 C 130.904 292.683,269.856 292.726,270.408 293.600 C 270.617 293.930,270.791 294.011,270.794 293.780 C 270.814 292.393,271.116 292.399,200.620 292.454 C 162.549 292.484,131.010 292.585,130.534 292.678 M129.462 328.100 C 129.564 328.265,161.306 328.400,200.000 328.400 C 238.694 328.400,270.436 328.265,270.538 328.100 C 270.640 327.935,238.898 327.800,200.000 327.800 C 161.102 327.800,129.360 327.935,129.462 328.100 M100.476 343.900 C 100.552 350.688,100.704 349.891,100.895 341.699 C 100.953 339.224,100.865 337.199,100.700 337.199 C 100.535 337.200,100.434 340.215,100.476 343.900 M299.105 341.699 C 299.296 349.891,299.448 350.688,299.524 343.900 C 299.566 340.215,299.465 337.200,299.300 337.199 C 299.135 337.199,299.047 339.224,299.105 341.699 " stroke="none" fill="#6c747c" fill-rule="evenodd"></path></g></svg>